<mxfile host="app.diagrams.net" modified="2024-01-09T03:30:53.034Z" agent="Mozilla/5.0 (Windows NT 10.0; Win64; x64) AppleWebKit/537.36 (KHTML, like Gecko) Chrome/120.0.0.0 Safari/537.36 Edg/120.0.0.0" etag="aGHRHAVm5T4XuvBzLLFg" version="22.1.17" type="github">
  <diagram id="C5RBs43oDa-KdzZeNtuy" name="Page-1">
    <mxGraphModel dx="1426" dy="759" grid="1" gridSize="10" guides="1" tooltips="1" connect="1" arrows="1" fold="1" page="1" pageScale="1" pageWidth="827" pageHeight="1169" math="0" shadow="0">
      <root>
        <mxCell id="WIyWlLk6GJQsqaUBKTNV-0" />
        <mxCell id="WIyWlLk6GJQsqaUBKTNV-1" parent="WIyWlLk6GJQsqaUBKTNV-0" />
        <mxCell id="kOWaRKJse35Xsc1iHWcL-3" value="" style="edgeStyle=orthogonalEdgeStyle;rounded=0;orthogonalLoop=1;jettySize=auto;html=1;" edge="1" parent="WIyWlLk6GJQsqaUBKTNV-1" source="kOWaRKJse35Xsc1iHWcL-0" target="kOWaRKJse35Xsc1iHWcL-2">
          <mxGeometry relative="1" as="geometry" />
        </mxCell>
        <mxCell id="kOWaRKJse35Xsc1iHWcL-8" value="销毁中心负责人" style="swimlane;whiteSpace=wrap;html=1;" vertex="1" parent="WIyWlLk6GJQsqaUBKTNV-1">
          <mxGeometry x="260" y="40" width="180" height="460" as="geometry" />
        </mxCell>
        <mxCell id="kOWaRKJse35Xsc1iHWcL-42" style="edgeStyle=orthogonalEdgeStyle;rounded=0;orthogonalLoop=1;jettySize=auto;html=1;entryX=0.5;entryY=0;entryDx=0;entryDy=0;" edge="1" parent="kOWaRKJse35Xsc1iHWcL-8" source="kOWaRKJse35Xsc1iHWcL-2" target="kOWaRKJse35Xsc1iHWcL-4">
          <mxGeometry relative="1" as="geometry" />
        </mxCell>
        <mxCell id="kOWaRKJse35Xsc1iHWcL-2" value="预约审核" style="rounded=1;whiteSpace=wrap;html=1;" vertex="1" parent="kOWaRKJse35Xsc1iHWcL-8">
          <mxGeometry x="30" y="50" width="120" height="40" as="geometry" />
        </mxCell>
        <mxCell id="kOWaRKJse35Xsc1iHWcL-6" value="车辆指派" style="whiteSpace=wrap;html=1;rounded=1;" vertex="1" parent="kOWaRKJse35Xsc1iHWcL-8">
          <mxGeometry x="30" y="270" width="120" height="40" as="geometry" />
        </mxCell>
        <mxCell id="kOWaRKJse35Xsc1iHWcL-43" style="edgeStyle=orthogonalEdgeStyle;rounded=0;orthogonalLoop=1;jettySize=auto;html=1;" edge="1" parent="kOWaRKJse35Xsc1iHWcL-8" source="kOWaRKJse35Xsc1iHWcL-4" target="kOWaRKJse35Xsc1iHWcL-6">
          <mxGeometry relative="1" as="geometry">
            <Array as="points">
              <mxPoint x="90" y="240" />
              <mxPoint x="90" y="240" />
            </Array>
          </mxGeometry>
        </mxCell>
        <mxCell id="kOWaRKJse35Xsc1iHWcL-45" value="是" style="edgeLabel;html=1;align=center;verticalAlign=middle;resizable=0;points=[];" vertex="1" connectable="0" parent="kOWaRKJse35Xsc1iHWcL-43">
          <mxGeometry x="-0.24" y="1" relative="1" as="geometry">
            <mxPoint as="offset" />
          </mxGeometry>
        </mxCell>
        <mxCell id="kOWaRKJse35Xsc1iHWcL-4" value="是否通过" style="rhombus;whiteSpace=wrap;html=1;rounded=1;" vertex="1" parent="kOWaRKJse35Xsc1iHWcL-8">
          <mxGeometry x="50" y="140" width="80" height="80" as="geometry" />
        </mxCell>
        <mxCell id="kOWaRKJse35Xsc1iHWcL-9" value="司机" style="swimlane;whiteSpace=wrap;html=1;" vertex="1" parent="WIyWlLk6GJQsqaUBKTNV-1">
          <mxGeometry x="440" y="40" width="180" height="460" as="geometry" />
        </mxCell>
        <mxCell id="kOWaRKJse35Xsc1iHWcL-39" value="司机接单" style="whiteSpace=wrap;html=1;rounded=1;" vertex="1" parent="kOWaRKJse35Xsc1iHWcL-9">
          <mxGeometry x="30" y="170" width="120" height="40" as="geometry" />
        </mxCell>
        <mxCell id="kOWaRKJse35Xsc1iHWcL-11" value="送销单位" style="swimlane;whiteSpace=wrap;html=1;" vertex="1" parent="WIyWlLk6GJQsqaUBKTNV-1">
          <mxGeometry x="80" y="40" width="180" height="460" as="geometry" />
        </mxCell>
        <mxCell id="kOWaRKJse35Xsc1iHWcL-0" value="销毁预约" style="rounded=1;whiteSpace=wrap;html=1;" vertex="1" parent="kOWaRKJse35Xsc1iHWcL-11">
          <mxGeometry x="30" y="50" width="120" height="40" as="geometry" />
        </mxCell>
        <mxCell id="kOWaRKJse35Xsc1iHWcL-20" value="销毁人员" style="swimlane;whiteSpace=wrap;html=1;" vertex="1" parent="WIyWlLk6GJQsqaUBKTNV-1">
          <mxGeometry x="620" y="40" width="180" height="460" as="geometry" />
        </mxCell>
        <mxCell id="kOWaRKJse35Xsc1iHWcL-21" value="销毁" style="whiteSpace=wrap;html=1;rounded=1;" vertex="1" parent="kOWaRKJse35Xsc1iHWcL-20">
          <mxGeometry x="30" y="170" width="120" height="40" as="geometry" />
        </mxCell>
        <mxCell id="kOWaRKJse35Xsc1iHWcL-29" value="销毁完成" style="whiteSpace=wrap;html=1;rounded=1;" vertex="1" parent="kOWaRKJse35Xsc1iHWcL-20">
          <mxGeometry x="30" y="390" width="120" height="40" as="geometry" />
        </mxCell>
        <mxCell id="kOWaRKJse35Xsc1iHWcL-27" value="当天能否销毁" style="rhombus;whiteSpace=wrap;html=1;rounded=1;" vertex="1" parent="kOWaRKJse35Xsc1iHWcL-20">
          <mxGeometry x="50" y="260" width="80" height="80" as="geometry" />
        </mxCell>
        <mxCell id="kOWaRKJse35Xsc1iHWcL-28" value="" style="edgeStyle=orthogonalEdgeStyle;rounded=0;orthogonalLoop=1;jettySize=auto;html=1;" edge="1" parent="kOWaRKJse35Xsc1iHWcL-20" source="kOWaRKJse35Xsc1iHWcL-21" target="kOWaRKJse35Xsc1iHWcL-27">
          <mxGeometry relative="1" as="geometry" />
        </mxCell>
        <mxCell id="kOWaRKJse35Xsc1iHWcL-30" value="" style="edgeStyle=orthogonalEdgeStyle;rounded=0;orthogonalLoop=1;jettySize=auto;html=1;" edge="1" parent="kOWaRKJse35Xsc1iHWcL-20" source="kOWaRKJse35Xsc1iHWcL-27" target="kOWaRKJse35Xsc1iHWcL-29">
          <mxGeometry relative="1" as="geometry" />
        </mxCell>
        <mxCell id="kOWaRKJse35Xsc1iHWcL-47" value="是" style="edgeLabel;html=1;align=center;verticalAlign=middle;resizable=0;points=[];" vertex="1" connectable="0" parent="kOWaRKJse35Xsc1iHWcL-30">
          <mxGeometry x="-0.24" relative="1" as="geometry">
            <mxPoint as="offset" />
          </mxGeometry>
        </mxCell>
        <mxCell id="kOWaRKJse35Xsc1iHWcL-22" value="库管" style="swimlane;whiteSpace=wrap;html=1;" vertex="1" parent="WIyWlLk6GJQsqaUBKTNV-1">
          <mxGeometry x="800" y="40" width="180" height="460" as="geometry" />
        </mxCell>
        <mxCell id="kOWaRKJse35Xsc1iHWcL-33" value="" style="edgeStyle=orthogonalEdgeStyle;rounded=0;orthogonalLoop=1;jettySize=auto;html=1;" edge="1" parent="kOWaRKJse35Xsc1iHWcL-22" source="kOWaRKJse35Xsc1iHWcL-23" target="kOWaRKJse35Xsc1iHWcL-32">
          <mxGeometry relative="1" as="geometry" />
        </mxCell>
        <mxCell id="kOWaRKJse35Xsc1iHWcL-23" value="入库" style="whiteSpace=wrap;html=1;rounded=1;" vertex="1" parent="kOWaRKJse35Xsc1iHWcL-22">
          <mxGeometry x="30" y="170" width="120" height="40" as="geometry" />
        </mxCell>
        <mxCell id="kOWaRKJse35Xsc1iHWcL-32" value="出库" style="whiteSpace=wrap;html=1;rounded=1;" vertex="1" parent="kOWaRKJse35Xsc1iHWcL-22">
          <mxGeometry x="30" y="50" width="120" height="40" as="geometry" />
        </mxCell>
        <mxCell id="kOWaRKJse35Xsc1iHWcL-34" style="edgeStyle=orthogonalEdgeStyle;rounded=0;orthogonalLoop=1;jettySize=auto;html=1;entryX=0.5;entryY=0;entryDx=0;entryDy=0;" edge="1" parent="WIyWlLk6GJQsqaUBKTNV-1" source="kOWaRKJse35Xsc1iHWcL-32" target="kOWaRKJse35Xsc1iHWcL-21">
          <mxGeometry relative="1" as="geometry" />
        </mxCell>
        <mxCell id="kOWaRKJse35Xsc1iHWcL-38" style="edgeStyle=orthogonalEdgeStyle;rounded=0;orthogonalLoop=1;jettySize=auto;html=1;entryX=0.5;entryY=1;entryDx=0;entryDy=0;" edge="1" parent="WIyWlLk6GJQsqaUBKTNV-1" source="kOWaRKJse35Xsc1iHWcL-27" target="kOWaRKJse35Xsc1iHWcL-23">
          <mxGeometry relative="1" as="geometry" />
        </mxCell>
        <mxCell id="kOWaRKJse35Xsc1iHWcL-48" value="否" style="edgeLabel;html=1;align=center;verticalAlign=middle;resizable=0;points=[];" vertex="1" connectable="0" parent="kOWaRKJse35Xsc1iHWcL-38">
          <mxGeometry x="-0.3957" y="-2" relative="1" as="geometry">
            <mxPoint x="1" as="offset" />
          </mxGeometry>
        </mxCell>
        <mxCell id="kOWaRKJse35Xsc1iHWcL-40" value="" style="edgeStyle=orthogonalEdgeStyle;rounded=0;orthogonalLoop=1;jettySize=auto;html=1;" edge="1" parent="WIyWlLk6GJQsqaUBKTNV-1" source="kOWaRKJse35Xsc1iHWcL-6" target="kOWaRKJse35Xsc1iHWcL-39">
          <mxGeometry relative="1" as="geometry" />
        </mxCell>
        <mxCell id="kOWaRKJse35Xsc1iHWcL-41" style="edgeStyle=orthogonalEdgeStyle;rounded=0;orthogonalLoop=1;jettySize=auto;html=1;entryX=0;entryY=0.5;entryDx=0;entryDy=0;" edge="1" parent="WIyWlLk6GJQsqaUBKTNV-1" source="kOWaRKJse35Xsc1iHWcL-39" target="kOWaRKJse35Xsc1iHWcL-21">
          <mxGeometry relative="1" as="geometry" />
        </mxCell>
        <mxCell id="kOWaRKJse35Xsc1iHWcL-44" style="edgeStyle=orthogonalEdgeStyle;rounded=0;orthogonalLoop=1;jettySize=auto;html=1;entryX=0.5;entryY=1;entryDx=0;entryDy=0;" edge="1" parent="WIyWlLk6GJQsqaUBKTNV-1" source="kOWaRKJse35Xsc1iHWcL-4" target="kOWaRKJse35Xsc1iHWcL-0">
          <mxGeometry relative="1" as="geometry">
            <mxPoint x="230" y="220" as="targetPoint" />
          </mxGeometry>
        </mxCell>
        <mxCell id="kOWaRKJse35Xsc1iHWcL-46" value="否" style="edgeLabel;html=1;align=center;verticalAlign=middle;resizable=0;points=[];" vertex="1" connectable="0" parent="kOWaRKJse35Xsc1iHWcL-44">
          <mxGeometry x="-0.0375" relative="1" as="geometry">
            <mxPoint x="1" as="offset" />
          </mxGeometry>
        </mxCell>
      </root>
    </mxGraphModel>
  </diagram>
</mxfile>
